<svg width="960" height="720" xmlns="http://www.w3.org/2000/svg" xmlns:xlink="http://www.w3.org/1999/xlink" overflow="hidden"><defs><clipPath id="clip0"><rect x="0" y="0" width="960" height="720"/></clipPath></defs><g clip-path="url(#clip0)"><rect x="0" y="0" width="960" height="720" fill="#FFFFFF"/><path d="M480.5 355.5 483.155 346.936 485.81 338.372 488.466 329.808 491.121 321.244 493.776 312.68 496.431 304.116 499.086 295.552 501.741 286.988 504.397 278.424 507.052 269.86 509.707 261.296 512.362 252.731 515.017 244.167 517.672 235.603 520.328 227.039 522.983 218.475 525.638 209.911 528.293 201.347 530.948 192.783 533.603 184.219 536.259 175.655 538.914 167.091 541.569 158.527 544.224 149.963 546.879 141.399 549.534 132.835 552.19 124.271 554.845 115.707 557.5 107.143 548.114 104.43 538.633 102.071 529.07 100.069 519.438 98.4271 509.752 97.1479 500.024 96.2328 490.269 95.6833 480.5 95.5001 480.5 104.466 480.5 113.431 480.5 122.397 480.5 131.362 480.5 140.328 480.5 149.293 480.5 158.259 480.5 167.224 480.5 176.19 480.5 185.155 480.5 194.121 480.5 203.086 480.5 212.052 480.5 221.017 480.5 229.983 480.5 238.948 480.5 247.914 480.5 256.879 480.5 265.845 480.5 274.81 480.5 283.776 480.5 292.741 480.5 301.707 480.5 310.672 480.5 319.638 480.5 328.603 480.5 337.569 480.5 346.535Z" stroke="#000000" stroke-width="1.42257" stroke-miterlimit="8" fill="#CE8964" fill-rule="evenodd"/><path d="M480.5 355.5 487.776 350.301 495.052 345.103 502.328 339.904 509.603 334.706 516.879 329.507 524.155 324.309 531.431 319.11 538.707 313.912 545.983 308.713 553.259 303.514 560.534 298.316 567.81 293.117 575.086 287.919 582.362 282.72 589.638 277.522 596.914 272.323 604.19 267.125 611.466 261.926 618.741 256.727 626.017 251.529 633.293 246.33 640.569 241.132 647.845 235.933 655.121 230.735 662.397 225.536 669.672 220.337 676.948 215.139 684.224 209.94 691.5 204.742 686.222 197.591 680.703 190.626 674.948 183.854 668.966 177.283 662.763 170.922 656.345 164.777 649.722 158.856 642.899 153.165 635.887 147.712 628.692 142.503 621.323 137.544 613.788 132.84 606.098 128.398 598.26 124.222 590.284 120.318 582.179 116.689 573.955 113.341 565.621 110.277 557.187 107.5 554.543 116.052 551.898 124.603 549.254 133.155 546.61 141.707 543.965 150.259 541.321 158.81 538.676 167.362 536.032 175.914 533.388 184.466 530.743 193.017 528.099 201.569 525.455 210.121 522.81 218.672 520.166 227.224 517.521 235.776 514.877 244.328 512.233 252.879 509.588 261.431 506.944 269.983 504.299 278.534 501.655 287.086 499.011 295.638 496.366 304.19 493.722 312.741 491.078 321.293 488.433 329.845 485.789 338.397 483.144 346.948Z" stroke="#000000" stroke-width="1.42257" stroke-miterlimit="8" fill="#9CC5A1" fill-rule="evenodd"/><path d="M480.424 355.489 478.531 364.253 476.637 373.017 474.743 381.781 472.849 390.545 470.955 399.31 469.061 408.074 467.167 416.838 465.273 425.602 463.379 434.366 461.485 443.13 459.591 451.894 457.697 460.658 455.803 469.422 453.909 478.187 452.015 486.951 450.121 495.715 448.227 504.479 446.333 513.243 444.44 522.007 442.546 530.771 440.652 539.535 438.758 548.299 436.864 557.064 434.97 565.828 433.076 574.592 431.182 583.356 429.288 592.12 427.394 600.884 425.5 609.648 434.134 611.361 442.822 612.78 451.553 613.905 460.316 614.734 469.103 615.266 477.903 615.5 486.705 615.436 495.501 615.075 504.279 614.416 513.03 613.461 521.743 612.21 530.409 610.665 539.018 608.828 547.56 606.701 556.025 604.285 564.403 601.585 572.685 598.603 580.861 595.343 588.922 591.807 596.859 588.001 604.663 583.929 612.324 579.595 619.835 575.004 627.185 570.162 634.368 565.074 641.374 559.745 648.195 554.183 654.825 548.393 661.255 542.383 667.477 536.158 673.485 529.726 679.273 523.095 684.832 516.271 690.157 509.263 695.242 502.08 700.081 494.728 704.669 487.217 708.999 479.555 713.068 471.751 716.87 463.813 720.401 455.752 723.657 447.576 726.635 439.294 729.331 430.916 731.741 422.452 733.864 413.911 735.696 405.303 737.236 396.639 738.482 387.927 739.432 379.177 740.086 370.401 740.442 361.608 740.5 352.807 740.26 344.01 739.723 335.226 738.889 326.465 737.758 317.737 736.333 309.053 734.614 300.422 732.605 291.853 730.307 283.358 727.722 274.945 724.854 266.625 721.706 258.407 718.282 250.299 714.585 242.312 710.62 234.455 706.391 226.736 701.903 219.165 697.162 211.75 692.173 204.5 684.871 209.706 677.569 214.913 670.268 220.12 662.966 225.326 655.664 230.533 648.363 235.739 641.061 240.946 633.759 246.152 626.458 251.359 619.156 256.565 611.854 261.772 604.553 266.978 597.251 272.185 589.949 277.391 582.648 282.598 575.346 287.804 568.044 293.011 560.743 298.217 553.441 303.424 546.139 308.63 538.838 313.837 531.536 319.043 524.234 324.25 516.933 329.456 509.631 334.663 502.329 339.869 495.028 345.076 487.726 350.282Z" stroke="#000000" stroke-width="1.42257" stroke-miterlimit="8" fill="#DACC3E" fill-rule="evenodd"/><path d="M480.5 355.431 480.5 346.468 480.5 337.505 480.5 328.542 480.5 319.578 480.5 310.615 480.5 301.652 480.5 292.689 480.5 283.726 480.5 274.763 480.5 265.8 480.5 256.836 480.5 247.873 480.5 238.91 480.5 229.947 480.5 220.984 480.5 212.021 480.5 203.058 480.5 194.095 480.5 185.131 480.5 176.168 480.5 167.205 480.5 158.242 480.5 149.279 480.5 140.316 480.5 131.353 480.5 122.389 480.5 113.426 480.5 104.463 480.5 95.5001 471.647 95.6507 462.805 96.1027 453.982 96.8554 445.191 97.908 436.44 99.2592 427.741 100.908 419.103 102.851 410.536 105.088 402.05 107.614 393.655 110.428 385.361 113.527 377.178 116.905 369.113 120.561 361.179 124.489 353.382 128.684 345.733 133.143 338.241 137.859 330.913 142.828 323.759 148.043 316.786 153.499 310.003 159.189 303.419 165.106 297.039 171.245 290.872 177.596 284.925 184.154 279.205 190.911 273.719 197.859 268.472 204.989 263.471 212.293 258.722 219.764 254.23 227.392 250 235.169 246.038 243.085 242.347 251.131 238.933 259.298 235.799 267.577 232.949 275.957 230.385 284.43 228.112 292.985 226.132 301.613 224.446 310.303 223.058 319.045 221.968 327.829 221.178 336.646 220.688 345.484 220.5 354.334 220.613 363.185 221.028 372.027 221.744 380.85 222.76 389.643 224.074 398.397 225.686 407.101 227.594 415.745 229.795 424.319 232.286 432.813 235.066 441.217 238.13 449.522 241.475 457.718 245.097 465.795 248.993 473.744 253.157 481.556 257.584 489.221 262.27 496.732 267.209 504.079 272.396 511.253 277.823 518.246 283.486 525.051 289.378 531.659 295.49 538.063 301.818 544.254 308.353 550.227 315.087 555.974 322.013 561.489 329.123 566.764 336.409 571.794 343.861 576.574 351.472 581.097 359.233 585.358 367.134 589.353 375.167 593.076 383.322 596.524 391.59 599.692 399.961 602.577 408.425 605.175 416.973 607.484 425.594 609.5 427.487 600.739 429.381 591.978 431.274 583.217 433.167 574.456 435.061 565.695 436.954 556.934 438.847 548.173 440.74 539.412 442.634 530.651 444.527 521.89 446.42 513.129 448.314 504.368 450.207 495.607 452.1 486.846 453.994 478.085 455.887 469.324 457.78 460.563 459.674 451.802 461.567 443.041 463.46 434.28 465.354 425.519 467.247 416.758 469.14 407.997 471.033 399.236 472.927 390.475 474.82 381.714 476.713 372.953 478.607 364.192Z" stroke="#000000" stroke-width="1.42257" stroke-miterlimit="8" fill="#819595" fill-rule="evenodd"/><text font-family="Aptos,Aptos_MSFontService,sans-serif" font-weight="400" font-size="48" transform="translate(407.333 45)">TORC2 Only</text><text font-family="Aptos,Aptos_MSFontService,sans-serif" font-weight="400" font-size="48" transform="translate(552.809 109)">TORC1 Only</text><text font-family="Aptos,Aptos_MSFontService,sans-serif" font-weight="400" font-size="48" transform="translate(482.333 444)">TORC</text><text font-family="Aptos,Aptos_MSFontService,sans-serif" font-weight="400" font-size="48" transform="translate(610.766 444)">1&amp;2</text><text font-family="Aptos,Aptos_MSFontService,sans-serif" font-weight="400" font-size="48" transform="translate(251.586 327)">No TORC</text><path d="M0.489404-0.102389 29.8276 140.129 28.8488 140.334-0.489404 0.102389ZM32.9804 138.108 30.7034 146.757 25.15 139.746Z" transform="matrix(-1 0 0 1 538.203 53.5001)"/><path d="M0.361766-0.345146 103.9 108.179 103.176 108.869-0.361766 0.345146ZM105.512 104.798 108.14 113.348 99.7237 110.32Z" transform="matrix(-1 0 0 1 683.64 118.5)"/></g></svg>