<svg width="960" height="720" xmlns="http://www.w3.org/2000/svg" xmlns:xlink="http://www.w3.org/1999/xlink" overflow="hidden"><defs><clipPath id="clip0"><rect x="0" y="0" width="960" height="720"/></clipPath></defs><g clip-path="url(#clip0)"><rect x="0" y="0" width="960" height="720" fill="#FFFFFF"/><path d="M0.500053 348.5C0.500053 162.932 215.403 12.5001 480.5 12.5001 745.597 12.5001 960.5 162.932 960.5 348.5 960.5 534.068 745.597 684.5 480.5 684.5 215.403 684.5 0.500053 534.068 0.500053 348.5Z" stroke="#FFFFFF" stroke-linecap="round" stroke-linejoin="round" stroke-miterlimit="10" fill="#FFFFFF" fill-rule="evenodd"/><path d="M220.5 360.5C220.5 216.906 336.906 100.5 480.5 100.5 624.094 100.5 740.5 216.906 740.5 360.5 740.5 504.094 624.094 620.5 480.5 620.5 336.906 620.5 220.5 504.094 220.5 360.5Z" stroke="#000000" stroke-width="1.42257" stroke-miterlimit="8" fill="#DACC3E" fill-rule="evenodd"/><text font-family="Aptos,Aptos_MSFontService,sans-serif" font-weight="400" font-size="48" transform="translate(379.616 378)">TORC1&amp;2</text></g></svg>