<svg width="1280" height="720" xmlns="http://www.w3.org/2000/svg" xmlns:xlink="http://www.w3.org/1999/xlink" overflow="hidden"><g><rect x="0" y="0" width="1280" height="720" fill="#FFFFFF"/><path d="M807 315C807 239.337 901.02 178 1017 178 1132.98 178 1227 239.337 1227 315 1227 390.663 1132.98 452 1017 452 901.02 452 807 390.663 807 315Z" stroke="#000000" stroke-width="2" stroke-miterlimit="8" fill="#879BA0" fill-rule="evenodd"/><path d="M739 205.5C739 160.489 792.95 124 859.5 124 926.05 124 980 160.489 980 205.5 980 250.511 926.05 287 859.5 287 792.95 287 739 250.511 739 205.5Z" stroke="#000000" stroke-width="2" stroke-miterlimit="8" fill="#DACC3E" fill-rule="evenodd"/><path d="M739 294C739 265.281 773.25 242 815.5 242 857.75 242 892 265.281 892 294 892 322.719 857.75 346 815.5 346 773.25 346 739 322.719 739 294Z" stroke="#000000" stroke-width="2" stroke-miterlimit="8" fill="#8C6F8D" fill-rule="evenodd"/><path d="M889 462.5C889 434.057 923.25 411 965.5 411 1007.75 411 1042 434.057 1042 462.5 1042 490.943 1007.75 514 965.5 514 923.25 514 889 490.943 889 462.5Z" stroke="#000000" stroke-width="2" stroke-miterlimit="8" fill="#B13607" fill-rule="evenodd"/><text font-family="Aptos,Aptos_MSFontService,sans-serif" font-weight="400" font-size="32" transform="translate(799.033 204)">RICTOR</text><text font-family="Aptos,Aptos_MSFontService,sans-serif" font-weight="400" font-size="32" transform="translate(782.445 304)">SIN1</text><text font-family="Aptos,Aptos_MSFontService,sans-serif" font-weight="400" font-size="32" transform="translate(932.824 468)">LST8</text><text font-family="Aptos,Aptos_MSFontService,sans-serif" font-weight="400" font-size="64" transform="translate(959.686 322)">TOR</text><path d="M108 312.5C108 236.561 202.02 175 318 175 433.98 175 528 236.561 528 312.5 528 388.439 433.98 450 318 450 202.02 450 108 388.439 108 312.5Z" stroke="#000000" stroke-width="2" stroke-miterlimit="8" fill="#879BA0" fill-rule="evenodd"/><path d="M191 460C191 431.281 225.25 408 267.5 408 309.75 408 344 431.281 344 460 344 488.719 309.75 512 267.5 512 225.25 512 191 488.719 191 460Z" stroke="#000000" stroke-width="2" stroke-miterlimit="8" fill="#B13607" fill-rule="evenodd"/><text font-family="Aptos,Aptos_MSFontService,sans-serif" font-weight="400" font-size="32" transform="translate(234.291 465)">LST8</text><text font-family="Aptos,Aptos_MSFontService,sans-serif" font-weight="400" font-size="64" transform="translate(261.153 319)">TOR</text><path d="M1 220.5C1 175.489 54.9497 139 121.5 139 188.05 139 242 175.489 242 220.5 242 265.511 188.05 302 121.5 302 54.9497 302 1 265.511 1 220.5Z" stroke="#000000" stroke-width="2" stroke-miterlimit="8" fill="#586D3D" fill-rule="evenodd" fill-opacity="0.74902"/><text font-family="Aptos,Aptos_MSFontService,sans-serif" font-weight="400" font-size="32" transform="translate(63.1584 222)">RAPTOR</text><text font-family="Aptos,Aptos_MSFontService,sans-serif" font-weight="400" font-size="58.6667" transform="translate(80.2812 68)">TOR Complex 1</text><text font-family="Aptos,Aptos_MSFontService,sans-serif" font-weight="400" font-size="58.6667" transform="translate(795.989 68)">TOR Complex 2</text></g></svg>