<svg width="960" height="720" xmlns="http://www.w3.org/2000/svg" xmlns:xlink="http://www.w3.org/1999/xlink" overflow="hidden"><defs><clipPath id="clip0"><rect x="0" y="0" width="960" height="720"/></clipPath></defs><g clip-path="url(#clip0)"><rect x="0" y="0" width="960" height="720" fill="#FFFFFF"/><rect x="0.500053" y="12.5001" width="960" height="672" stroke="#FFFFFF" stroke-linecap="round" stroke-linejoin="round" stroke-miterlimit="10" fill="#FFFFFF"/><path d="M480.5 360.5 481.362 351.577 482.224 342.654 483.086 333.732 483.948 324.809 484.81 315.886 485.672 306.963 486.534 298.041 487.397 289.118 488.259 280.195 489.121 271.272 489.983 262.349 490.845 253.427 491.707 244.504 492.569 235.581 493.431 226.658 494.293 217.735 495.155 208.813 496.017 199.89 496.879 190.967 497.741 182.044 498.604 173.121 499.466 164.199 500.328 155.276 501.19 146.353 502.052 137.43 502.914 128.507 503.776 119.585 504.638 110.662 505.5 101.739 493.015 100.81 480.5 100.5 480.5 109.466 480.5 118.431 480.5 127.397 480.5 136.362 480.5 145.328 480.5 154.293 480.5 163.259 480.5 172.224 480.5 181.19 480.5 190.155 480.5 199.121 480.5 208.086 480.5 217.052 480.5 226.017 480.5 234.983 480.5 243.948 480.5 252.914 480.5 261.879 480.5 270.845 480.5 279.81 480.5 288.776 480.5 297.741 480.5 306.707 480.5 315.672 480.5 324.638 480.5 333.603 480.5 342.569 480.5 351.535Z" stroke="#000000" stroke-width="1.42257" stroke-miterlimit="8" fill="#BCA469" fill-rule="evenodd"/><path d="M480.831 359.888 473.578 365.139 466.325 370.389 459.072 375.639 451.82 380.89 444.567 386.14 437.314 391.391 430.061 396.641 422.809 401.892 415.556 407.142 408.303 412.392 401.05 417.643 393.797 422.893 386.545 428.144 379.292 433.394 372.039 438.644 364.786 443.895 357.533 449.145 350.281 454.396 343.028 459.646 335.775 464.897 328.522 470.147 321.269 475.397 314.017 480.648 306.764 485.898 299.511 491.149 292.258 496.399 285.006 501.649 277.753 506.9 270.5 512.15 275.812 519.228 281.363 526.121 287.145 532.821 293.152 539.32 299.377 545.61 305.813 551.685 312.452 557.537 319.287 563.159 326.309 568.545 333.511 573.689 340.884 578.585 348.42 583.226 356.11 587.608 363.944 591.725 371.914 595.573 380.011 599.147 388.225 602.443 396.546 605.458 404.966 608.187 413.473 610.628 422.059 612.777 430.713 614.633 439.425 616.192 448.186 617.454 456.984 618.417 465.81 619.079 474.654 619.44 483.504 619.5 492.352 619.258 501.186 618.715 509.996 617.871 518.773 616.727 527.505 615.286 536.184 613.547 544.798 611.513 553.338 609.188 561.793 606.572 570.154 603.671 578.412 600.486 586.556 597.021 594.578 593.281 602.467 589.27 610.215 584.992 617.813 580.453 625.251 575.657 632.522 570.611 639.617 565.32 646.527 559.791 653.244 554.029 659.762 548.042 666.071 541.836 672.165 535.419 678.037 528.797 683.68 521.98 689.087 514.974 694.253 507.788 699.17 500.431 703.834 492.91 708.238 485.234 712.379 477.413 716.25 469.455 719.848 461.37 723.168 453.167 726.207 444.856 728.961 436.446 731.426 427.947 733.6 419.37 735.481 410.722 737.066 402.016 738.353 393.261 739.341 384.468 740.029 375.645 740.415 366.805 740.5 357.956 740.283 349.109 739.765 340.275 738.946 331.464 737.828 322.686 736.41 313.951 734.696 305.27 732.687 296.652 730.385 288.107 727.793 279.646 724.915 271.278 721.753 263.013 718.311 254.86 714.593 246.83 710.603 238.931 706.347 231.172 701.828 223.563 697.053 216.112 692.027 208.828 686.755 201.72 681.244 194.796 675.501 188.063 669.531 181.53 663.342 175.204 656.94 169.093 650.335 163.203 643.532 157.542 636.54 152.116 629.368 146.931 622.023 141.994 614.514 137.31 606.849 132.884 599.038 128.722 591.09 124.829 583.014 121.208 574.819 117.865 566.515 114.804 558.111 112.026 549.618 109.537 541.044 107.339 532.401 105.434 523.698 103.825 514.945 102.513 506.152 101.5 505.279 110.41 504.406 119.32 503.533 128.23 502.659 137.14 501.786 146.05 500.913 154.96 500.04 163.87 499.167 172.78 498.294 181.689 497.421 190.599 496.547 199.509 495.674 208.419 494.801 217.329 493.928 226.239 493.055 235.149 492.182 244.059 491.309 252.969 490.435 261.879 489.562 270.789 488.689 279.699 487.816 288.609 486.943 297.519 486.07 306.429 485.197 315.339 484.323 324.249 483.45 333.159 482.577 342.068 481.704 350.978Z" stroke="#000000" stroke-width="1.42257" stroke-miterlimit="8" fill="#586D3D" fill-rule="evenodd"/><path d="M480.5 360.141 473.196 354.947 465.891 349.752 458.587 344.558 451.282 339.363 443.978 334.169 436.673 328.974 429.369 323.779 422.065 318.585 414.76 313.39 407.456 308.196 400.151 303.001 392.847 297.807 385.542 292.612 378.238 287.418 370.933 282.223 363.629 277.029 356.325 271.834 349.02 266.64 341.716 261.445 334.411 256.251 327.107 251.056 319.802 245.862 312.498 240.667 305.193 235.473 297.889 230.278 290.585 225.084 283.28 219.889 275.976 214.694 268.671 209.5 263.584 216.91 258.757 224.491 254.194 232.235 249.902 240.131 245.887 248.171 242.152 256.345 238.702 264.643 235.541 273.056 232.673 281.573 230.102 290.183 227.831 298.878 225.861 307.645 224.197 316.476 222.839 325.358 221.789 334.283 221.049 343.238 220.619 352.213 220.5 361.198 220.692 370.182 221.195 379.154 222.008 388.103 223.131 397.018 224.561 405.89 226.297 414.706 228.338 423.457 230.68 432.133 233.322 440.723 236.258 449.216 239.487 457.602 243.005 465.872 246.806 474.015 250.888 482.023 255.243 489.884 259.869 497.59 264.758 505.132 269.905 512.5 277.167 507.246 284.429 501.993 291.691 496.739 298.953 491.485 306.215 486.231 313.477 480.977 320.739 475.724 328 470.47 335.262 465.216 342.524 459.962 349.786 454.709 357.048 449.455 364.31 444.201 371.572 438.948 378.834 433.694 386.095 428.44 393.357 423.186 400.619 417.932 407.881 412.679 415.143 407.425 422.405 402.171 429.667 396.917 436.929 391.664 444.191 386.41 451.453 381.156 458.714 375.902 465.976 370.649 473.238 365.395Z" stroke="#000000" stroke-width="1.42257" stroke-miterlimit="8" fill="#DACC3E" fill-rule="evenodd"/><path d="M480.5 360.5 480.5 351.535 480.5 342.569 480.5 333.603 480.5 324.638 480.5 315.672 480.5 306.707 480.5 297.741 480.5 288.776 480.5 279.81 480.5 270.845 480.5 261.879 480.5 252.914 480.5 243.948 480.5 234.983 480.5 226.017 480.5 217.052 480.5 208.086 480.5 199.121 480.5 190.155 480.5 181.19 480.5 172.224 480.5 163.259 480.5 154.293 480.5 145.328 480.5 136.362 480.5 127.397 480.5 118.431 480.5 109.466 480.5 100.5 471.652 100.65 462.815 101.101 453.998 101.852 445.211 102.902 436.466 104.25 427.771 105.894 419.137 107.833 410.574 110.064 402.092 112.584 393.701 115.391 385.41 118.482 377.229 121.853 369.168 125.499 361.235 129.417 353.44 133.603 345.793 138.051 338.301 142.756 330.973 147.713 323.818 152.916 316.845 158.36 310.061 164.037 303.474 169.941 297.091 176.065 290.921 182.403 284.97 188.947 279.245 195.689 273.753 202.622 268.5 209.738 275.81 214.936 283.121 220.135 290.431 225.334 297.741 230.532 305.052 235.731 312.362 240.93 319.672 246.129 326.983 251.327 334.293 256.526 341.604 261.725 348.914 266.923 356.224 272.122 363.535 277.321 370.845 282.519 378.155 287.718 385.466 292.917 392.776 298.116 400.086 303.314 407.397 308.513 414.707 313.712 422.017 318.91 429.328 324.109 436.638 329.308 443.948 334.506 451.259 339.705 458.569 344.904 465.879 350.103 473.19 355.301Z" stroke="#000000" stroke-width="1.42257" stroke-miterlimit="8" fill="#819595" fill-rule="evenodd"/><text font-family="Times New Roman,Times New Roman_MSFontService,sans-serif" font-weight="400" font-size="22.76" transform="translate(479.085 47)">TORC2 Only</text><text font-family="Times New Roman,Times New Roman_MSFontService,sans-serif" font-weight="400" font-size="22.76" transform="translate(500.377 69)">1.554 %</text><text font-family="Times New Roman,Times New Roman_MSFontService,sans-serif" font-weight="400" font-size="22.76" transform="translate(528.418 411)">TORC1 Only</text><text font-family="Times New Roman,Times New Roman_MSFontService,sans-serif" font-weight="400" font-size="22.76" transform="translate(551.961 446)">63.472 %</text><text font-family="Times New Roman,Times New Roman_MSFontService,sans-serif" font-weight="400" font-size="22.76" transform="translate(244.183 350)">TORC1 &amp; TORC2</text><text font-family="Times New Roman,Times New Roman_MSFontService,sans-serif" font-weight="400" font-size="22.76" transform="translate(279.007 379)">19.819 %</text><text font-family="Times New Roman,Times New Roman_MSFontService,sans-serif" font-weight="400" font-size="22.76" transform="translate(351.903 184)">No TORC</text><text font-family="Times New Roman,Times New Roman_MSFontService,sans-serif" font-weight="400" font-size="22.76" transform="translate(357.41 208)">15.155 %</text><path d="M0.895995-0.987406 38.6742 33.2935 36.8823 35.2683-0.895995 0.987406ZM39.4788 30.4226 42.7153 38.7608 34.1029 36.3471Z" transform="matrix(-1 0 0 1 536.215 72.5001)"/></g></svg>