<svg width="960" height="720" xmlns="http://www.w3.org/2000/svg" xmlns:xlink="http://www.w3.org/1999/xlink" overflow="hidden"><defs><clipPath id="clip0"><rect x="0" y="0" width="960" height="720"/></clipPath></defs><g clip-path="url(#clip0)"><rect x="0" y="0" width="960" height="720" fill="#FFFFFF"/><rect x="0.500053" y="1.50005" width="960" height="672" stroke="#FFFFFF" stroke-linecap="round" stroke-linejoin="round" stroke-miterlimit="10" fill="#FFFFFF"/><path d="M480.507 349.01 476.34 341.087 472.174 333.163 468.007 325.24 463.841 317.316 459.674 309.392 455.507 301.469 451.341 293.545 447.174 285.621 443.008 277.698 438.841 269.774 434.674 261.851 430.508 253.927 426.341 246.003 422.175 238.08 418.008 230.156 413.841 222.233 409.675 214.309 405.508 206.385 401.341 198.462 397.175 190.538 393.008 182.614 388.842 174.691 384.675 166.767 380.509 158.844 376.342 150.92 372.175 142.996 368.009 135.073 363.842 127.149 359.675 119.225 351.938 123.447 344.348 127.929 336.915 132.664 329.647 137.649 322.553 142.876 315.64 148.341 308.917 154.036 302.391 159.956 296.07 166.093 289.961 172.441 284.072 178.992 278.408 185.738 272.977 192.672 267.785 199.786 262.837 207.072 258.14 214.521 253.699 222.124 249.518 229.874 245.603 237.76 241.958 245.775 238.588 253.908 235.496 262.151 232.686 270.493 230.161 278.926 227.923 287.44 225.977 296.024 224.323 304.67 222.964 313.366 221.901 322.103 221.135 330.871 220.668 339.661 220.5 348.46 220.631 357.261 221.061 366.052 221.789 374.823 222.815 383.565 224.137 392.267 225.754 400.919 227.664 409.512 229.865 418.035 232.354 426.478 235.129 434.833 238.186 443.088 241.522 451.236 245.133 459.266 249.014 467.169 253.162 474.936 257.571 482.558 262.236 490.027 267.153 497.334 272.315 504.469 277.717 511.426 283.352 518.197 289.213 524.772 295.295 531.146 301.59 537.31 308.09 543.257 314.789 548.981 321.678 554.475 328.751 559.732 335.997 564.747 343.41 569.514 350.981 574.028 358.7 578.282 366.56 582.273 374.551 585.996 382.664 589.445 390.889 592.619 399.217 595.512 407.639 598.121 416.145 600.445 424.724 602.478 433.368 604.221 442.066 605.669 450.809 606.823 459.585 607.68 468.386 608.239 477.2 608.5 486.018 608.463 494.83 608.127 503.626 607.493 512.395 606.562 521.127 605.335 529.812 603.812 538.441 601.997 547.003 599.891 555.489 597.496 563.888 594.815 572.191 591.852 580.389 588.609 588.473 585.09 596.431 581.3 604.257 577.243 611.94 572.924 619.472 568.346 626.844 563.517 634.048 558.44 641.075 553.123 647.918 547.571 654.568 541.791 661.018 535.789 667.26 529.572 673.287 523.147 679.093 516.522 684.67 509.704 690.012 502.702 695.113 495.523 699.968 488.175 704.57 480.667 708.914 473.007 712.996 465.205 716.81 457.27 720.352 449.21 723.618 441.034 726.605 432.753 729.309 424.375 731.726 415.911 733.855 407.37 735.692 398.762 737.235 390.096 738.484 381.383 739.435 372.633 740.089 363.856 740.444 355.061 740.5 346.26 740.257 337.462 739.715 328.677 738.875 319.915 737.738 311.187 736.305 302.503 734.578 293.872 732.558 285.304 730.249 276.81 727.652 268.399 724.771 260.08 721.609 251.864 718.17 243.76 714.457 235.776 710.476 227.923 706.229 220.209 701.723 212.644 696.963 205.235 691.954 197.991 686.701 190.921 681.211 184.033 675.491 177.335 669.546 170.835 663.383 164.539 657.01 158.455 650.435 152.591 643.664 146.953 636.705 141.547 629.566 136.379 622.256 131.457 614.783 126.784 607.155 122.367 599.382 118.211 591.472 114.32 583.435 110.7 575.279 107.353 567.014 104.284 558.649 101.497 550.195 98.9948 541.66 96.7799 533.055 94.8552 524.39 93.2227 515.674 91.8846 506.918 90.8423 498.131 90.0969 489.324 89.6492 480.507 89.5001 480.507 98.4487 480.507 107.397 480.507 116.346 480.507 125.295 480.507 134.243 480.507 143.192 480.507 152.141 480.507 161.089 480.507 170.038 480.507 178.986 480.507 187.935 480.507 196.884 480.507 205.832 480.507 214.781 480.507 223.73 480.507 232.678 480.507 241.627 480.507 250.576 480.507 259.524 480.507 268.473 480.507 277.421 480.507 286.37 480.507 295.319 480.507 304.267 480.507 313.216 480.507 322.165 480.507 331.113 480.507 340.062Z" stroke="#000000" stroke-width="1.42257" stroke-miterlimit="8" fill="#D0D1AC" fill-rule="evenodd"/><path d="M480.5 349.5 480.5 340.535 480.5 331.569 480.5 322.603 480.5 313.638 480.5 304.672 480.5 295.707 480.5 286.741 480.5 277.776 480.5 268.81 480.5 259.845 480.5 250.879 480.5 241.914 480.5 232.948 480.5 223.983 480.5 215.017 480.5 206.052 480.5 197.086 480.5 188.121 480.5 179.155 480.5 170.19 480.5 161.224 480.5 152.259 480.5 143.293 480.5 134.328 480.5 125.362 480.5 116.397 480.5 107.431 480.5 98.4656 480.5 89.5001 471.513 89.6549 462.537 90.1195 453.582 90.8932 444.659 91.9751 435.779 93.3639 426.952 95.0579 418.189 97.0551 409.501 99.3532 400.897 101.949 392.387 104.841 383.983 108.023 375.694 111.494 367.53 115.248 359.5 119.281 363.672 127.22 367.845 135.159 372.017 143.097 376.19 151.036 380.362 158.974 384.535 166.913 388.707 174.851 392.879 182.79 397.052 190.729 401.224 198.667 405.397 206.606 409.569 214.544 413.741 222.483 417.914 230.421 422.086 238.36 426.259 246.299 430.431 254.237 434.604 262.176 438.776 270.114 442.948 278.053 447.121 285.991 451.293 293.93 455.466 301.869 459.638 309.807 463.81 317.746 467.983 325.684 472.155 333.623 476.328 341.562Z" stroke="#000000" stroke-width="1.42257" stroke-miterlimit="8" fill="#A020F0" fill-rule="evenodd"/><text font-family="Aptos,Aptos_MSFontService,sans-serif" font-weight="400" font-size="22.76" transform="translate(431.255 464)">Plastid</text><text font-family="Aptos,Aptos_MSFontService,sans-serif" font-weight="400" font-size="22.76" transform="translate(499.121 464)">-</text><text font-family="Aptos,Aptos_MSFontService,sans-serif" font-weight="400" font-size="22.76" transform="translate(506.788 464)">Parasite</text><text font-family="Aptos,Aptos_MSFontService,sans-serif" font-weight="400" font-size="22.76" transform="translate(467.991 496)">92.308 %</text><text font-family="Aptos,Aptos_MSFontService,sans-serif" font-weight="400" font-size="22.76" transform="translate(344.046 57)">Endosymbiotic</text><text font-family="Aptos,Aptos_MSFontService,sans-serif" font-weight="400" font-size="22.76" transform="translate(381.827 79)">7.692 %</text><text font-family="Aptos,Aptos_MSFontService,sans-serif" font-weight="700" font-size="17.6" transform="translate(6.67297 28)">Metabolic Strategies Breakdown No TORC</text></g></svg>