<svg width="960" height="720" xmlns="http://www.w3.org/2000/svg" xmlns:xlink="http://www.w3.org/1999/xlink" overflow="hidden"><defs><clipPath id="clip0"><rect x="0" y="0" width="960" height="720"/></clipPath></defs><g clip-path="url(#clip0)"><rect x="0" y="0" width="960" height="720" fill="#FFFFFF"/><rect x="3.50005" y="6.50005" width="960" height="672" stroke="#FFFFFF" stroke-linecap="round" stroke-linejoin="round" stroke-miterlimit="10" fill="#FFFFFF"/><path d="M480.5 352.5 481.19 343.561 481.879 334.622 482.569 325.683 483.259 316.744 483.948 307.805 484.638 298.866 485.328 289.927 486.017 280.988 486.707 272.049 487.397 263.11 488.086 254.171 488.776 245.232 489.466 236.293 490.155 227.354 490.845 218.415 491.535 209.476 492.224 200.537 492.914 191.598 493.604 182.659 494.293 173.72 494.983 164.781 495.672 155.842 496.362 146.903 497.052 137.964 497.741 129.025 498.431 120.086 499.121 111.147 499.81 102.208 500.5 93.2691 490.507 92.6924 480.5 92.5001 480.5 101.466 480.5 110.431 480.5 119.397 480.5 128.362 480.5 137.328 480.5 146.293 480.5 155.259 480.5 164.224 480.5 173.19 480.5 182.155 480.5 191.121 480.5 200.086 480.5 209.052 480.5 218.017 480.5 226.983 480.5 235.948 480.5 244.914 480.5 253.879 480.5 262.845 480.5 271.81 480.5 280.776 480.5 289.741 480.5 298.707 480.5 307.672 480.5 316.638 480.5 325.603 480.5 334.569 480.5 343.535Z" stroke="#000000" stroke-width="1.42257" stroke-miterlimit="8" fill="#D0D1AC" fill-rule="evenodd"/><path d="M480.5 352.5 482.431 343.755 484.362 335.009 486.293 326.263 488.224 317.518 490.155 308.772 492.086 300.027 494.017 291.281 495.948 282.536 497.879 273.79 499.81 265.045 501.741 256.299 503.672 247.553 505.603 238.808 507.535 230.062 509.466 221.317 511.397 212.571 513.328 203.826 515.259 195.08 517.19 186.335 519.121 177.589 521.052 168.844 522.983 160.098 524.914 151.352 526.845 142.607 528.776 133.861 530.707 125.116 532.638 116.37 534.569 107.625 536.5 98.8791 527.552 97.0561 518.546 95.5508 509.492 94.365 500.402 93.5001 499.716 102.431 499.03 111.362 498.344 120.293 497.657 129.224 496.971 138.155 496.285 147.086 495.598 156.017 494.912 164.948 494.226 173.879 493.54 182.81 492.853 191.741 492.167 200.672 491.481 209.604 490.794 218.534 490.108 227.466 489.422 236.397 488.736 245.328 488.049 254.259 487.363 263.19 486.677 272.121 485.99 281.052 485.304 289.983 484.618 298.914 483.932 307.845 483.245 316.776 482.559 325.707 481.873 334.638 481.186 343.569Z" stroke="#000000" stroke-width="1.42257" stroke-miterlimit="8" fill="#63E3C5" fill-rule="evenodd"/><path d="M480.5 352.5 482.672 343.828 484.845 335.157 487.017 326.485 489.19 317.813 491.362 309.141 493.534 300.47 495.707 291.798 497.879 283.126 500.052 274.455 502.224 265.783 504.397 257.111 506.569 248.439 508.741 239.768 510.914 231.096 513.086 222.424 515.259 213.753 517.431 205.081 519.603 196.409 521.776 187.737 523.948 179.066 526.121 170.394 528.293 161.722 530.466 153.051 532.638 144.379 534.81 135.707 536.983 127.035 539.155 118.364 541.328 109.692 543.5 101.02 536.98 99.5001 535.033 108.224 533.085 116.948 531.137 125.672 529.19 134.397 527.242 143.121 525.295 151.845 523.347 160.569 521.399 169.293 519.452 178.017 517.504 186.741 515.557 195.466 513.609 204.19 511.662 212.914 509.714 221.638 507.766 230.362 505.819 239.086 503.871 247.81 501.924 256.534 499.976 265.259 498.028 273.983 496.081 282.707 494.133 291.431 492.186 300.155 490.238 308.879 488.29 317.603 486.343 326.328 484.395 335.052 482.448 343.776Z" stroke="#000000" stroke-width="1.42257" stroke-miterlimit="8" fill="#A87142" fill-rule="evenodd"/><path d="M480.5 352.5 483.741 344.158 486.983 335.816 490.224 327.474 493.465 319.132 496.707 310.79 499.948 302.447 503.19 294.105 506.431 285.763 509.672 277.421 512.914 269.079 516.155 260.737 519.397 252.395 522.638 244.053 525.879 235.711 529.121 227.369 532.362 219.026 535.603 210.684 538.845 202.342 542.086 194 545.328 185.658 548.569 177.316 551.81 168.974 555.052 160.632 558.293 152.29 561.535 143.948 564.776 135.605 568.017 127.263 571.259 118.921 574.5 110.579 564.115 106.769 553.578 103.407 542.907 100.5 540.755 109.19 538.603 117.879 536.451 126.569 534.299 135.259 532.147 143.948 529.995 152.638 527.843 161.328 525.691 170.017 523.539 178.707 521.387 187.397 519.235 196.086 517.084 204.776 514.932 213.466 512.78 222.155 510.628 230.845 508.476 239.535 506.324 248.224 504.172 256.914 502.02 265.603 499.868 274.293 497.716 282.983 495.564 291.672 493.412 300.362 491.26 309.052 489.108 317.741 486.956 326.431 484.804 335.121 482.652 343.81Z" stroke="#000000" stroke-width="1.42257" stroke-miterlimit="8" fill="#A020F0" fill-rule="evenodd"/><path d="M480.502 352.517 480.502 343.551 480.502 334.585 480.502 325.618 480.502 316.652 480.502 307.686 480.502 298.72 480.502 289.754 480.502 280.788 480.502 271.822 480.502 262.856 480.502 253.89 480.502 244.924 480.502 235.958 480.502 226.991 480.502 218.025 480.502 209.059 480.502 200.093 480.502 191.127 480.502 182.161 480.502 173.195 480.502 164.229 480.502 155.263 480.502 146.297 480.502 137.331 480.502 128.364 480.502 119.398 480.502 110.432 480.502 101.466 480.502 92.5001 471.67 92.6501 462.849 93.1 454.048 93.8493 445.277 94.8971 436.547 96.2423 427.868 97.8832 419.25 99.8179 410.702 102.044 402.235 104.56 393.858 107.361 385.581 110.446 377.414 113.81 369.365 117.449 361.445 121.36 353.662 125.537 346.026 129.977 338.545 134.673 331.228 139.621 324.083 144.814 317.118 150.247 310.342 155.913 303.762 161.807 297.387 167.92 291.223 174.247 285.277 180.779 279.556 187.509 274.067 194.43 268.817 201.533 263.811 208.811 259.055 216.254 254.554 223.855 250.315 231.604 246.341 239.493 242.637 247.512 239.207 255.652 236.057 263.904 233.188 272.258 230.605 280.705 228.31 289.235 226.306 297.838 224.595 306.504 223.18 315.223 222.062 323.985 221.242 332.78 220.721 341.598 220.5 350.428 220.579 359.261 220.958 368.086 221.637 376.893 222.614 385.672 223.889 394.413 225.46 403.105 227.326 411.739 229.483 420.304 231.93 428.792 234.665 437.191 237.683 445.493 240.981 453.687 244.555 461.765 248.402 469.716 252.517 477.532 256.894 485.204 261.53 492.723 266.419 500.08 271.555 507.267 276.931 514.275 282.543 521.096 288.383 527.723 294.445 534.148 300.722 540.363 307.206 546.361 313.89 552.136 320.766 557.68 327.827 562.987 335.064 568.052 342.468 572.868 350.033 577.429 357.747 581.731 365.603 585.769 373.592 589.537 381.705 593.031 389.931 596.249 398.262 599.184 406.687 601.836 415.198 604.199 423.784 606.272 432.436 608.052 441.143 609.537 449.896 610.726 458.684 611.617 467.497 612.208 476.325 612.5 485.158 612.492 493.986 612.184 502.798 611.576 511.584 610.669 520.334 609.464 529.039 607.963 537.687 606.167 546.27 604.078 554.776 601.699 563.197 599.032 571.522 596.081 579.743 592.849 587.849 589.339 595.83 585.556 603.679 581.505 611.386 577.188 618.942 572.613 626.337 567.784 633.565 562.706 640.616 557.385 647.482 551.828 654.155 546.042 660.628 540.031 666.894 533.805 672.944 527.369 678.772 520.731 684.371 513.899 689.734 506.882 694.857 499.685 699.732 492.319 704.354 484.792 708.718 477.112 712.818 469.288 716.65 461.33 720.21 453.246 723.493 445.045 726.495 436.738 729.214 428.334 731.646 419.842 733.787 411.272 735.637 402.635 737.192 393.94 738.451 385.197 739.412 376.416 740.074 367.608 740.437 358.782 740.5 349.949 740.263 341.119 739.726 332.302 738.89 323.509 737.755 314.749 736.324 306.033 734.597 297.37 732.578 288.771 730.267 280.245 727.668 271.803 724.784 263.454 721.618 255.208 718.174 247.074 714.455 239.061 710.466 231.18 706.212 223.439 701.698 215.846 696.928 208.412 691.909 201.144 686.645 194.05 681.144 187.139 675.411 180.42 669.453 173.898 663.277 167.583 656.89 161.481 650.3 155.6 643.513 149.946 636.539 144.526 629.384 139.346 622.058 134.412 614.568 129.729 606.924 125.304 599.133 121.141 591.206 117.245 583.151 113.62 574.977 110.272 571.719 118.625 568.462 126.978 565.204 135.331 561.946 143.685 558.688 152.038 555.431 160.391 552.173 168.744 548.915 177.098 545.657 185.451 542.4 193.804 539.142 202.158 535.884 210.511 532.626 218.864 529.369 227.218 526.111 235.571 522.853 243.924 519.595 252.277 516.338 260.631 513.08 268.984 509.822 277.337 506.564 285.691 503.307 294.044 500.049 302.397 496.791 310.75 493.533 319.104 490.275 327.457 487.018 335.81 483.76 344.163Z" stroke="#000000" stroke-width="1.42257" stroke-miterlimit="8" fill="#3CBA26" fill-rule="evenodd"/><text font-family="Times New Roman,Times New Roman_MSFontService,sans-serif" font-weight="400" font-size="22.76" transform="translate(271.8 60)">Plastid</text><text font-family="Times New Roman,Times New Roman_MSFontService,sans-serif" font-weight="400" font-size="22.76" transform="translate(333.8 60)">-</text><text font-family="Times New Roman,Times New Roman_MSFontService,sans-serif" font-weight="400" font-size="22.76" transform="translate(341.3 60)">Parasite</text><text font-family="Times New Roman,Times New Roman_MSFontService,sans-serif" font-weight="400" font-size="22.76" transform="translate(310.466 86)">1.224 %</text><text font-family="Times New Roman,Times New Roman_MSFontService,sans-serif" font-weight="400" font-size="22.76" transform="translate(448.627 30)">Mixotroph</text><text font-family="Times New Roman,Times New Roman_MSFontService,sans-serif" font-weight="400" font-size="22.76" transform="translate(471.529 55)">2.245 %</text><text font-family="Times New Roman,Times New Roman_MSFontService,sans-serif" font-weight="400" font-size="22.76" transform="translate(591.88 44)">Heterotroph</text><text font-family="Times New Roman,Times New Roman_MSFontService,sans-serif" font-weight="400" font-size="22.76" transform="translate(612.991 71)">0.408 %</text><text font-family="Times New Roman,Times New Roman_MSFontService,sans-serif" font-weight="400" font-size="22.76" transform="translate(659.477 104)">Endosymbiotic</text><text font-family="Times New Roman,Times New Roman_MSFontService,sans-serif" font-weight="400" font-size="22.76" transform="translate(702.839 131)">2.041 %</text><text font-family="Times New Roman,Times New Roman_MSFontService,sans-serif" font-weight="400" font-size="22.76" transform="translate(398.246 467)">Autotrophic</text><text font-family="Times New Roman,Times New Roman_MSFontService,sans-serif" font-weight="400" font-size="22.76" transform="translate(415.329 501)">94.082 %</text><text font-family="Times New Roman,Times New Roman_MSFontService,sans-serif" font-weight="400" font-size="17.6" transform="translate(3.32262 18)">Metabolic Strategies Breakdown TORC1 Only</text><path d="M390.761 79.1925 476.62 96.3135 476.099 98.9287 390.239 81.8076ZM475.834 93.4376 482.897 98.9248 474.27 101.283Z"/><path d="M508.832 58.4345 512.215 127.203 509.552 127.334 506.168 58.5656ZM514.813 125.74 511.211 133.927 506.823 126.133Z"/><path d="M0.303829-1.29825 99.1563 21.836 98.5486 24.4326-0.303829 1.29825ZM98.4657 18.9357 105.344 24.6534 96.6427 26.7252Z" transform="matrix(-1 0 0 1 648.844 74.5001)"/><path d="M693.168 127.416 570.064 119.271 570.24 116.61 693.344 124.755ZM571.219 122.02 563.5 117.5 571.747 114.037Z"/></g></svg>