<svg width="960" height="720" xmlns="http://www.w3.org/2000/svg" xmlns:xlink="http://www.w3.org/1999/xlink" overflow="hidden"><defs><clipPath id="clip0"><rect x="0" y="0" width="960" height="720"/></clipPath></defs><g clip-path="url(#clip0)"><rect x="0" y="0" width="960" height="720" fill="#FFFFFF"/><rect x="1.50005" y="0.500053" width="960" height="672" stroke="#FFFFFF" stroke-linecap="round" stroke-linejoin="round" stroke-miterlimit="10" fill="#FFFFFF"/><path d="M481.5 348.5 482.604 339.603 483.707 330.705 484.81 321.807 485.914 312.91 487.017 304.012 488.121 295.115 489.224 286.217 490.328 277.32 491.431 268.422 492.535 259.524 493.638 250.627 494.741 241.729 495.845 232.832 496.948 223.934 498.052 215.037 499.155 206.139 500.259 197.242 501.362 188.344 502.466 179.446 503.569 170.549 504.672 161.651 505.776 152.754 506.879 143.856 507.983 134.959 509.086 126.061 510.19 117.163 511.293 108.266 512.397 99.3683 513.5 90.4706 502.863 89.3765 492.191 88.7192 481.5 88.5001 481.5 97.4656 481.5 106.431 481.5 115.397 481.5 124.362 481.5 133.328 481.5 142.293 481.5 151.259 481.5 160.224 481.5 169.19 481.5 178.155 481.5 187.121 481.5 196.086 481.5 205.052 481.5 214.017 481.5 222.983 481.5 231.948 481.5 240.914 481.5 249.879 481.5 258.845 481.5 267.81 481.5 276.776 481.5 285.741 481.5 294.707 481.5 303.672 481.5 312.638 481.5 321.603 481.5 330.569 481.5 339.535Z" stroke="#000000" stroke-width="1.42257" stroke-miterlimit="8" fill="#D0D1AC" fill-rule="evenodd"/><path d="M481.5 348.22 487.651 354.713 493.803 361.205 499.954 367.698 506.105 374.19 512.257 380.682 518.408 387.175 524.56 393.667 530.711 400.16 536.862 406.652 543.014 413.144 549.165 419.637 555.316 426.129 561.468 432.622 567.619 439.114 573.771 445.606 579.922 452.099 586.073 458.591 592.225 465.084 598.376 471.576 604.527 478.068 610.679 484.561 616.83 491.053 622.982 497.546 629.133 504.038 635.284 510.53 641.436 517.023 647.587 523.515 653.738 530.008 659.89 536.5 666.211 530.27 672.315 523.827 678.196 517.178 683.847 510.332 689.261 503.296 694.431 496.078 699.353 488.687 704.019 481.131 708.424 473.42 712.564 465.562 716.433 457.567 720.027 449.443 723.342 441.201 726.373 432.851 729.118 424.401 731.573 415.862 733.735 407.244 735.601 398.556 737.17 389.81 738.44 381.015 739.409 372.181 740.075 363.32 740.439 354.441 740.5 345.554 740.257 336.671 739.712 327.801 738.864 318.955 737.714 310.144 736.265 301.376 734.517 292.664 732.473 284.017 730.135 275.445 727.506 266.958 724.589 258.567 721.387 250.28 717.904 242.108 714.144 234.061 710.112 226.147 705.812 218.376 701.25 210.757 696.43 203.299 691.359 196.011 686.041 188.901 680.485 181.977 674.695 175.249 668.679 168.723 662.443 162.406 655.996 156.308 649.345 150.434 642.497 144.792 635.46 139.389 628.244 134.229 620.855 129.321 613.303 124.668 605.597 120.278 597.745 116.154 589.757 112.302 581.643 108.727 573.411 105.431 565.072 102.421 556.635 99.6977 548.11 97.2657 539.506 95.1276 530.835 93.286 522.106 91.7429 513.33 90.5001 512.232 99.3869 511.135 108.274 510.037 117.161 508.939 126.048 507.842 134.935 506.744 143.821 505.647 152.708 504.549 161.595 503.452 170.482 502.354 179.369 501.256 188.256 500.159 197.143 499.061 206.03 497.964 214.917 496.866 223.804 495.769 232.691 494.671 241.577 493.573 250.464 492.476 259.351 491.378 268.238 490.281 277.125 489.183 286.012 488.086 294.899 486.988 303.786 485.89 312.673 484.793 321.56 483.695 330.447 482.598 339.333Z" stroke="#000000" stroke-width="1.42257" stroke-miterlimit="8" fill="#FE4A49" fill-rule="evenodd"/><path d="M481.5 348.5 482.418 357.397 483.337 366.293 484.255 375.19 485.174 384.086 486.092 392.983 487.011 401.879 487.929 410.776 488.848 419.672 489.766 428.569 490.685 437.466 491.603 446.362 492.522 455.259 493.44 464.155 494.359 473.052 495.277 481.948 496.196 490.845 497.114 499.741 498.033 508.638 498.951 517.534 499.87 526.431 500.788 535.328 501.707 544.224 502.625 553.121 503.544 562.017 504.462 570.914 505.381 579.81 506.299 588.707 507.218 597.604 508.136 606.5 517.059 605.427 525.939 604.046 534.767 602.36 543.53 600.37 552.22 598.079 560.824 595.49 569.334 592.605 577.739 589.429 586.029 585.964 594.194 582.215 602.224 578.187 610.11 573.884 617.842 569.312 625.411 564.475 632.807 559.381 640.023 554.034 647.05 548.441 653.878 542.609 660.5 536.546 654.328 530.061 648.155 523.577 641.983 517.093 635.81 510.608 629.638 504.124 623.466 497.64 617.293 491.155 611.121 484.671 604.948 478.187 598.776 471.702 592.604 465.218 586.431 458.734 580.259 452.249 574.086 445.765 567.914 439.281 561.741 432.796 555.569 426.312 549.397 419.828 543.224 413.343 537.052 406.859 530.879 400.375 524.707 393.89 518.535 387.406 512.362 380.922 506.19 374.437 500.017 367.953 493.845 361.469 487.672 354.984Z" stroke="#000000" stroke-width="1.42257" stroke-miterlimit="8" fill="#63E3C5" fill-rule="evenodd"/><path d="M480.913 347.983 475.449 340.897 469.986 333.812 464.522 326.726 459.058 319.64 453.594 312.555 448.13 305.469 442.667 298.383 437.203 291.298 431.739 284.212 426.275 277.127 420.811 270.041 415.347 262.955 409.884 255.87 404.42 248.784 398.956 241.699 393.492 234.613 388.028 227.527 382.564 220.442 377.101 213.356 371.637 206.27 366.173 199.185 360.709 192.099 355.245 185.014 349.782 177.928 344.318 170.842 338.854 163.757 333.39 156.671 327.926 149.586 322.463 142.5 315.563 148.014 308.856 153.76 302.347 159.731 296.046 165.92 289.959 172.32 284.093 178.923 278.455 185.723 273.052 192.71 267.89 199.877 262.974 207.216 258.312 214.718 253.907 222.375 249.765 230.177 245.891 238.115 242.289 246.181 238.964 254.365 235.919 262.657 233.158 271.049 230.684 279.529 228.5 288.088 226.608 296.717 225.011 305.406 223.711 314.144 222.709 322.921 222.006 331.727 221.603 340.552 221.5 349.385 221.698 358.217 222.196 367.037 222.994 375.835 224.092 384.6 225.486 393.324 227.177 401.994 229.161 410.602 231.438 419.138 234.003 427.591 236.855 435.952 239.989 444.211 243.402 452.358 247.091 460.384 251.051 468.281 255.277 476.037 259.764 483.646 264.508 491.097 269.502 498.383 274.742 505.494 280.22 512.422 285.931 519.16 291.868 525.7 298.024 532.034 304.392 538.154 310.964 544.054 317.733 549.727 324.691 555.167 331.831 560.366 339.143 565.319 346.619 570.02 354.251 574.464 362.03 578.645 369.947 582.559 377.992 586.202 386.156 589.568 394.43 592.654 402.805 595.457 411.27 597.973 419.815 600.2 428.432 602.134 437.109 603.773 445.837 605.117 454.605 606.162 463.405 606.908 472.224 607.354 481.054 607.5 489.883 607.345 498.702 606.889 507.5 606.134 506.583 597.232 505.666 588.33 504.75 579.428 503.833 570.526 502.916 561.625 501.999 552.723 501.083 543.821 500.166 534.92 499.249 526.018 498.332 517.116 497.415 508.214 496.499 499.312 495.582 490.411 494.665 481.509 493.748 472.607 492.831 463.706 491.915 454.804 490.998 445.902 490.081 437 489.164 428.099 488.247 419.197 487.331 410.295 486.414 401.393 485.497 392.491 484.58 383.59 483.664 374.688 482.747 365.786 481.83 356.885Z" stroke="#000000" stroke-width="1.42257" stroke-miterlimit="8" fill="#A87142" fill-rule="evenodd"/><path d="M481.5 348.5 481.5 339.535 481.5 330.569 481.5 321.603 481.5 312.638 481.5 303.672 481.5 294.707 481.5 285.741 481.5 276.776 481.5 267.81 481.5 258.845 481.5 249.879 481.5 240.914 481.5 231.948 481.5 222.983 481.5 214.017 481.5 205.052 481.5 196.086 481.5 187.121 481.5 178.155 481.5 169.19 481.5 160.224 481.5 151.259 481.5 142.293 481.5 133.328 481.5 124.362 481.5 115.397 481.5 106.431 481.5 97.4656 481.5 88.5001 472.5 88.6555 463.51 89.1217 454.541 89.898 445.605 90.9836 436.712 92.3771 427.873 94.077 419.097 96.081 410.396 98.387 401.781 100.992 393.26 103.893 384.845 107.086 376.546 110.569 368.372 114.335 360.333 118.382 352.44 122.704 344.701 127.296 337.125 132.152 329.722 137.267 322.5 142.635 327.983 149.734 333.466 156.833 338.948 163.932 344.431 171.03 349.914 178.129 355.397 185.228 360.879 192.327 366.362 199.425 371.845 206.524 377.328 213.623 382.81 220.722 388.293 227.821 393.776 234.919 399.259 242.018 404.741 249.117 410.224 256.216 415.707 263.315 421.19 270.413 426.673 277.512 432.155 284.611 437.638 291.71 443.121 298.809 448.604 305.907 454.086 313.006 459.569 320.105 465.052 327.204 470.535 334.302 476.017 341.401Z" stroke="#000000" stroke-width="1.42257" stroke-miterlimit="8" fill="#3CBA26" fill-rule="evenodd"/><text font-family="Aptos,Aptos_MSFontService,sans-serif" font-weight="400" font-size="48" transform="translate(484.887 59)">Plastid</text><text font-family="Aptos,Aptos_MSFontService,sans-serif" font-weight="400" font-size="48" transform="translate(627.44 59)">-</text><text font-family="Aptos,Aptos_MSFontService,sans-serif" font-weight="400" font-size="48" transform="translate(643.774 59)">Parasite</text><text font-family="Aptos,Aptos_MSFontService,sans-serif" font-weight="400" font-size="48" transform="translate(491.332 304)">Non</text><text font-family="Aptos,Aptos_MSFontService,sans-serif" font-weight="400" font-size="48" transform="translate(578.165 304)">-</text><text font-family="Aptos,Aptos_MSFontService,sans-serif" font-weight="400" font-size="48" transform="translate(594.499 304)">Plastid</text><text font-family="Aptos,Aptos_MSFontService,sans-serif" font-weight="400" font-size="48" transform="translate(501.165 349)">Parasite</text><text font-family="Aptos,Aptos_MSFontService,sans-serif" font-weight="400" font-size="48" transform="translate(530.434 641)">Mixotroph</text><text font-family="Aptos,Aptos_MSFontService,sans-serif" font-weight="400" font-size="48" transform="translate(228.851 379)">Heterotroph</text><text font-family="Aptos,Aptos_MSFontService,sans-serif" font-weight="400" font-size="48" transform="translate(236.342 80)">Autotroph</text></g></svg>