<svg width="960" height="720" xmlns="http://www.w3.org/2000/svg" xmlns:xlink="http://www.w3.org/1999/xlink" overflow="hidden"><defs><clipPath id="clip0"><rect x="0" y="0" width="960" height="720"/></clipPath></defs><g clip-path="url(#clip0)"><rect x="0" y="0" width="960" height="720" fill="#FFFFFF"/><rect x="0.500053" y="2.50005" width="960" height="672" stroke="#FFFFFF" stroke-linecap="round" stroke-linejoin="round" stroke-miterlimit="10" fill="#FFFFFF"/><path d="M480.5 349.5 484.983 341.766 489.466 334.031 493.948 326.297 498.431 318.562 502.914 310.828 507.397 303.093 511.879 295.359 516.362 287.624 520.845 279.89 525.328 272.155 529.81 264.421 534.293 256.686 538.776 248.951 543.259 241.217 547.741 233.482 552.224 225.748 556.707 218.014 561.19 210.279 565.672 202.544 570.155 194.81 574.638 187.075 579.121 179.341 583.604 171.606 588.086 163.872 592.569 156.138 597.052 148.403 601.535 140.668 606.017 132.934 610.5 125.199 602.563 120.817 594.477 116.712 586.252 112.892 577.898 109.359 569.425 106.12 560.844 103.176 552.166 100.533 543.4 98.1934 534.557 96.1598 525.649 94.4348 516.685 93.0206 507.677 91.9188 498.637 91.1309 489.574 90.6577 480.5 90.5001 480.5 99.4311 480.5 108.362 480.5 117.293 480.5 126.224 480.5 135.155 480.5 144.086 480.5 153.017 480.5 161.948 480.5 170.879 480.5 179.81 480.5 188.741 480.5 197.672 480.5 206.604 480.5 215.535 480.5 224.466 480.5 233.397 480.5 242.328 480.5 251.259 480.5 260.19 480.5 269.121 480.5 278.052 480.5 286.983 480.5 295.914 480.5 304.845 480.5 313.776 480.5 322.707 480.5 331.638 480.5 340.569Z" stroke="#000000" stroke-width="1.42257" stroke-miterlimit="8" fill="#FE4A49" fill-rule="evenodd"/><path d="M480.491 350.006 480.491 341.057 480.491 332.109 480.491 323.16 480.491 314.212 480.491 305.263 480.491 296.315 480.491 287.366 480.491 278.418 480.491 269.469 480.491 260.521 480.491 251.572 480.491 242.624 480.491 233.675 480.491 224.727 480.491 215.779 480.491 206.83 480.491 197.882 480.491 188.933 480.491 179.985 480.491 171.036 480.491 162.088 480.491 153.139 480.491 144.191 480.491 135.242 480.491 126.294 480.491 117.345 480.491 108.397 480.491 99.4485 480.491 90.5001 471.683 90.6489 462.886 91.0955 454.109 91.8393 445.362 92.8793 436.655 94.2145 427.999 95.8433 419.403 97.7638 410.877 99.9737 402.431 102.471 394.075 105.252 385.818 108.314 377.669 111.653 369.639 115.266 361.735 119.148 353.968 123.296 346.347 127.703 338.879 132.366 331.574 137.278 324.439 142.435 317.484 147.83 310.716 153.457 304.143 159.309 297.772 165.381 291.61 171.664 285.666 178.152 279.945 184.837 274.455 191.712 269.2 198.768 264.189 205.998 259.425 213.393 254.916 220.946 250.665 228.646 246.678 236.485 242.959 244.455 239.513 252.546 236.344 260.749 233.455 269.054 230.849 277.452 228.53 285.934 226.5 294.489 224.761 303.107 223.317 311.78 222.167 320.496 221.314 329.247 220.758 338.021 220.5 346.809 220.541 355.6 220.88 364.385 221.517 373.154 222.451 381.896 223.681 390.601 225.207 399.26 227.025 407.862 229.134 416.398 231.531 424.858 234.215 433.232 237.181 441.51 240.426 449.683 243.947 457.742 247.739 465.677 251.798 473.48 256.12 481.14 260.7 488.65 265.531 496.002 270.61 503.185 275.929 510.193 281.483 517.016 287.265 523.649 293.27 530.081 299.489 536.308 305.915 542.32 312.543 548.112 319.363 553.676 326.368 559.006 333.549 564.097 340.9 568.942 348.41 573.535 356.073 577.872 363.878 581.948 371.817 585.757 379.88 589.296 388.059 592.56 396.345 595.546 404.726 598.25 413.195 600.669 421.741 602.8 430.354 604.641 439.025 606.19 447.744 607.445 456.5 608.404 465.284 609.067 474.085 609.432 482.893 609.5 491.699 609.27 500.492 608.742 509.262 607.917 517.998 606.797 526.692 605.381 535.333 603.673 543.911 601.673 552.416 599.385 560.838 596.81 569.169 593.952 577.397 590.814 585.514 587.4 593.511 583.713 601.378 579.758 609.106 575.539 616.687 571.061 624.111 566.33 631.371 561.35 638.457 556.128 645.362 550.669 652.078 544.98 658.597 539.068 664.911 532.938 671.014 526.598 676.898 520.055 682.557 513.318 687.984 506.393 693.172 499.288 698.117 492.012 702.811 484.573 707.251 476.98 711.43 469.241 715.345 461.365 718.989 453.361 722.36 445.239 725.453 437.007 728.266 428.675 730.794 420.254 733.034 411.751 734.985 403.178 736.643 394.543 738.008 385.858 739.077 377.131 739.849 368.374 740.324 359.595 740.5 350.805 740.378 342.014 739.958 333.232 739.239 324.47 738.224 315.737 736.913 307.043 735.308 298.399 733.41 289.814 731.222 281.298 728.747 272.861 725.986 264.512 722.943 256.261 719.623 248.118 716.027 240.092 712.162 232.192 708.03 224.428 703.638 216.807 698.989 209.34 694.09 202.034 688.945 194.897 683.561 187.939 677.944 181.167 672.1 174.588 666.037 168.211 659.76 162.042 653.278 156.089 646.598 150.359 639.726 144.858 632.672 139.592 625.444 134.568 618.049 129.791 610.496 125.267 606.013 133.017 601.53 140.766 597.047 148.516 592.564 156.266 588.081 164.015 583.598 171.765 579.115 179.514 574.633 187.264 570.15 195.013 565.667 202.763 561.184 210.513 556.701 218.262 552.218 226.012 547.735 233.762 543.252 241.511 538.769 249.261 534.286 257.01 529.803 264.76 525.32 272.509 520.837 280.259 516.354 288.009 511.871 295.758 507.388 303.508 502.905 311.258 498.423 319.007 493.94 326.757 489.457 334.506 484.974 342.256Z" stroke="#000000" stroke-width="1.42257" stroke-miterlimit="8" fill="#A87142" fill-rule="evenodd"/><text font-family="Times New Roman,Times New Roman_MSFontService,sans-serif" font-weight="400" font-size="22.76" transform="translate(479.503 58)">Non</text><text font-family="Times New Roman,Times New Roman_MSFontService,sans-serif" font-weight="400" font-size="22.76" transform="translate(518.67 58)">-</text><text font-family="Times New Roman,Times New Roman_MSFontService,sans-serif" font-weight="400" font-size="22.76" transform="translate(526.17 58)">Plastid Parasite</text><text font-family="Times New Roman,Times New Roman_MSFontService,sans-serif" font-weight="400" font-size="22.76" transform="translate(540.586 85)">8.333 %</text><text font-family="Times New Roman,Times New Roman_MSFontService,sans-serif" font-weight="400" font-size="22.76" transform="translate(388.643 462)">Heterotroph</text><text font-family="Times New Roman,Times New Roman_MSFontService,sans-serif" font-weight="400" font-size="22.76" transform="translate(405.726 496)">91.667 %</text><text font-family="Times New Roman,Times New Roman_MSFontService,sans-serif" font-weight="400" font-size="17.6" transform="translate(155.913 17)">Metabolic Strategies Breakdown TORC2 Only</text></g></svg>